<svg width="103" height="48" viewBox="0 0 103 48" fill="none" xmlns="http://www.w3.org/2000/svg">
<rect x="0.5" y="0.5" width="102" height="47" rx="3.5" fill="#E7375E"/>
<path fill-rule="evenodd" clip-rule="evenodd" d="M64.8322 13.347C64.9255 13.2537 64.9722 13.1697 64.9722 13.095C64.9722 13.039 64.9535 12.9924 64.9162 12.955C64.8415 12.8804 64.7295 12.843 64.5802 12.843C64.4122 12.843 64.2535 12.871 64.1042 12.927C64.0295 12.9644 63.9455 13.0017 63.8522 13.039C63.3669 13.2444 62.8162 13.4964 62.2002 13.795C61.6775 14.0564 61.0709 14.383 60.3802 14.775C59.6895 15.167 58.9335 15.6337 58.1122 16.175C57.2162 16.791 56.2829 17.463 55.3122 18.191C54.3415 18.919 53.3802 19.703 52.4282 20.543C51.4949 21.3644 50.5895 22.2324 49.7122 23.147C48.8535 24.0617 48.0882 24.995 47.4162 25.947C47.3975 26.0217 47.3695 26.0964 47.3322 26.171C47.2575 26.3577 47.2202 26.5257 47.2202 26.675C47.2202 26.843 47.2762 27.0017 47.3882 27.151C47.5189 27.3004 47.7709 27.375 48.1442 27.375H48.4242C48.5175 27.3564 48.6202 27.3377 48.7322 27.319C49.4789 27.1884 50.2442 27.0577 51.0282 26.927C51.7002 26.815 52.4375 26.6937 53.2402 26.563C54.0429 26.4324 54.8269 26.3204 55.5922 26.227C54.8829 27.3097 54.2295 28.4297 53.6322 29.587C53.0535 30.7444 52.6149 31.883 52.3162 33.003C52.3162 33.0404 52.3069 33.087 52.2882 33.143C52.2695 33.199 52.2602 33.3017 52.2602 33.451C52.2602 33.6377 52.2975 33.8057 52.3722 33.955C52.4469 34.123 52.6055 34.207 52.8482 34.207H52.9042C53.0349 34.207 53.1469 34.1604 53.2402 34.067C53.3335 33.9737 53.4269 33.8337 53.5202 33.647C53.6135 33.479 53.6882 33.2177 53.7442 32.863C53.7815 32.5644 53.8842 32.1817 54.0522 31.715C54.2015 31.323 54.4069 30.8377 54.6682 30.259C54.9295 29.6804 55.2842 28.999 55.7322 28.215C55.8255 28.0657 55.9282 27.8884 56.0402 27.683C56.1335 27.4964 56.2549 27.2724 56.4042 27.011C56.5722 26.731 56.7682 26.4137 56.9922 26.059C57.3282 26.0217 57.6455 25.9937 57.9442 25.975C58.2615 25.9564 58.5789 25.947 58.8962 25.947C59.3815 25.947 59.8109 25.9657 60.1842 26.003C60.5575 26.0404 60.8749 26.0777 61.1362 26.115C61.4349 26.171 61.6962 26.2364 61.9202 26.311C62.2375 26.4417 62.4709 26.507 62.6202 26.507C62.7695 26.507 62.8535 26.479 62.8722 26.423C62.9095 26.367 62.9282 26.311 62.9282 26.255C62.9095 26.0497 62.7975 25.891 62.5922 25.779C62.4055 25.6484 62.1909 25.5457 61.9482 25.471C61.6682 25.3964 61.3602 25.3404 61.0242 25.303C60.8749 25.2844 60.7162 25.275 60.5482 25.275C60.3802 25.2564 60.2029 25.247 60.0162 25.247C59.2135 25.247 58.3455 25.303 57.4122 25.415C57.9535 24.631 58.6255 23.6977 59.4282 22.615C60.2309 21.5324 61.2202 20.3004 62.3962 18.919C62.4709 18.8257 62.5082 18.7417 62.5082 18.667C62.5082 18.611 62.4895 18.5644 62.4522 18.527C62.4335 18.5084 62.4149 18.499 62.3962 18.499C62.3215 18.4617 62.2282 18.443 62.1162 18.443C61.9482 18.443 61.7989 18.4897 61.6682 18.583C61.5935 18.639 61.5375 18.695 61.5002 18.751C60.9402 19.3297 60.3522 19.983 59.7362 20.711C59.2135 21.327 58.6255 22.055 57.9722 22.895C57.3375 23.7164 56.6935 24.603 56.0402 25.555C55.5735 25.611 55.0229 25.6857 54.3882 25.779C53.7722 25.8724 53.1562 25.975 52.5402 26.087C51.9429 26.1804 51.3922 26.2644 50.8882 26.339C50.4029 26.4137 50.0482 26.451 49.8242 26.451C49.5815 26.451 49.4322 26.4137 49.3762 26.339C49.3015 26.283 49.2642 26.199 49.2642 26.087C49.2642 25.9937 49.2829 25.9097 49.3202 25.835L49.3762 25.723C49.9735 24.6964 50.7015 23.7164 51.5602 22.783C52.4189 21.831 53.2589 20.9817 54.0802 20.235C55.0322 19.3577 56.0122 18.5457 57.0202 17.799C58.1962 16.903 59.2322 16.1937 60.1282 15.671C61.0242 15.1297 61.7802 14.7004 62.3962 14.383C63.1242 14.0284 63.7589 13.767 64.3002 13.599C64.5802 13.5244 64.7575 13.4404 64.8322 13.347ZM75.2913 15.279C75.4406 15.0737 75.5153 14.9617 75.5153 14.943C75.5153 14.8684 75.4593 14.831 75.3473 14.831C75.2353 14.831 75.17 14.8404 75.1513 14.859L75.0953 14.915C75.002 15.0084 74.89 15.1017 74.7593 15.195C74.6473 15.2884 74.4793 15.363 74.2553 15.419C73.882 15.5124 73.4526 15.5777 72.9673 15.615C72.5006 15.6524 72.0153 15.671 71.5113 15.671C71.026 15.671 70.5406 15.6617 70.0553 15.643C69.57 15.6057 69.1406 15.5684 68.7673 15.531C68.3193 15.4937 67.8993 15.4564 67.5073 15.419C67.4513 15.4004 67.4046 15.4004 67.3673 15.419C67.3486 15.4377 67.3206 15.4564 67.2833 15.475C67.246 15.4937 67.218 15.5217 67.1993 15.559C66.882 16.007 66.5553 16.4737 66.2193 16.959C65.9206 17.3697 65.6033 17.799 65.2673 18.247C64.9313 18.695 64.6046 19.1057 64.2873 19.479C64.1006 19.7404 63.9233 19.9737 63.7553 20.179C63.606 20.3657 63.4753 20.5524 63.3633 20.739C63.2513 20.907 63.1953 21.0377 63.1953 21.131C63.1953 21.1684 63.214 21.2244 63.2513 21.299C63.3073 21.3737 63.4566 21.411 63.6993 21.411C63.8113 21.411 64.0353 21.4204 64.3713 21.439C64.7073 21.4577 65.0806 21.5137 65.4913 21.607C65.9206 21.6817 66.3686 21.803 66.8353 21.971C67.302 22.1204 67.7313 22.3444 68.1233 22.643C68.5153 22.923 68.8326 23.287 69.0753 23.735C69.3366 24.1644 69.4673 24.6964 69.4673 25.331C69.4673 26.0777 69.2526 26.9084 68.8233 27.823C68.394 28.7377 67.806 29.5964 67.0593 30.399C66.3313 31.2017 65.4633 31.8737 64.4553 32.415C63.466 32.9564 62.4113 33.227 61.2913 33.227C61.1606 33.227 60.974 33.2084 60.7313 33.171C60.4886 33.1524 60.2273 33.0777 59.9473 32.947C59.686 32.8164 59.4246 32.6204 59.1633 32.359C58.9206 32.1164 58.7246 31.7804 58.5753 31.351C58.5566 31.3137 58.5286 31.267 58.4913 31.211C58.4353 31.1177 58.3513 31.071 58.2393 31.071C57.8473 31.071 57.6513 31.3977 57.6513 32.051C57.6513 32.499 57.9033 32.919 58.4073 33.311C58.8926 33.7217 59.6766 33.927 60.7593 33.927C61.7673 33.927 62.8593 33.6844 64.0353 33.199C65.2113 32.7324 66.294 32.0884 67.2833 31.267C68.2913 30.4457 69.122 29.475 69.7753 28.355C70.4473 27.235 70.7833 26.031 70.7833 24.743C70.7833 24.183 70.6993 23.6977 70.5313 23.287C70.382 22.8577 70.1766 22.4844 69.9153 22.167C69.654 21.831 69.3553 21.551 69.0193 21.327C68.702 21.103 68.366 20.9164 68.0113 20.767C67.19 20.4124 66.266 20.1884 65.2393 20.095C65.09 20.0764 64.9966 20.0484 64.9593 20.011C64.9406 19.9737 64.9313 19.9083 64.9313 19.815C65.118 19.479 65.3233 19.143 65.5473 18.807C65.79 18.471 66.0233 18.1724 66.2473 17.911C66.5086 17.5937 66.77 17.295 67.0313 17.015C67.0873 16.959 67.1433 16.931 67.1993 16.931C67.274 16.9124 67.3393 16.903 67.3953 16.903C67.7686 16.9217 68.198 16.9404 68.6833 16.959C69.1686 16.9777 69.626 16.987 70.0553 16.987H71.6233C72.314 16.931 72.902 16.8004 73.3873 16.595C73.8726 16.371 74.274 16.147 74.5913 15.923C74.9086 15.6804 75.142 15.4657 75.2913 15.279ZM39.4749 15.0592H34.6761L27.4847 35.1569H31.9144L33.3089 31.0143H40.7327L42.0179 35.1569H46.5843L39.4749 15.0592ZM39.5569 27.5416H34.43L37.0003 19.5846H37.055L39.5569 27.5416Z" fill="#F5F5F5"/>
<rect x="0.5" y="0.5" width="102" height="47" rx="3.5" stroke="#F5F5F5"/>
</svg>
